<svg width="40" height="40" viewBox="0 0 40 40" fill="none" xmlns="http://www.w3.org/2000/svg">
<circle cx="20.2632" cy="20.2652" r="17.5034" fill="white"/>
<path d="M16.6173 28.0007H13.5765V18.2086H16.6173V28.0007ZM15.0951 16.8728C14.1229 16.8728 13.334 16.0672 13.334 15.095C13.334 14.1228 14.1223 13.334 15.0951 13.334C16.0678 13.334 16.8562 14.1223 16.8562 15.095C16.8562 16.0672 16.0673 16.8728 15.0951 16.8728ZM27.998 28.0007H24.964V23.234C24.964 22.0978 24.941 20.6411 23.3831 20.6411C21.8022 20.6411 21.5597 21.8752 21.5597 23.1523V28.0007H18.522V18.2086H21.4381V19.5443H21.4806C21.8865 18.7748 22.8781 17.9629 24.3574 17.9629C27.4349 17.9629 28.0007 19.9895 28.0007 22.6217V28.0007H27.998Z" fill="#242424"/>
</svg>
