<svg width="40" height="40" viewBox="0 0 40 40" fill="none" xmlns="http://www.w3.org/2000/svg">
<circle cx="20.2613" cy="20.2617" r="17.5034" fill="white"/>
<path d="M19.9972 16.5477C19.315 16.5479 18.6482 16.7505 18.0811 17.1298C17.5141 17.509 17.0721 18.048 16.8113 18.6784C16.5504 19.3089 16.4823 20.0025 16.6155 20.6717C16.7487 21.3409 17.0774 21.9555 17.5598 22.4379C18.0423 22.9203 18.6569 23.2488 19.326 23.3818C19.9951 23.5148 20.6886 23.4464 21.3188 23.1852C21.949 22.9241 22.4877 22.4819 22.8666 21.9145C23.2456 21.3472 23.4479 20.6802 23.4479 19.9978C23.4472 19.0828 23.0834 18.2054 22.4364 17.5585C21.7893 16.9116 20.912 16.548 19.9972 16.5477ZM28.062 13.8957C27.8864 13.4506 27.6212 13.0463 27.2829 12.7079C26.9446 12.3696 26.5404 12.1043 26.0954 11.9287C24.7374 11.3925 21.504 11.5128 19.9972 11.5128C18.4904 11.5128 15.2602 11.388 13.8983 11.9287C13.4533 12.1043 13.0491 12.3696 12.7108 12.7079C12.3725 13.0463 12.1074 13.4506 11.9318 13.8957C11.3963 15.254 11.5159 18.4914 11.5159 19.9972C11.5159 21.503 11.3963 24.7365 11.9343 26.0993C12.1099 26.5445 12.3751 26.9487 12.7134 27.2871C13.0517 27.6255 13.4559 27.8907 13.9009 28.0663C15.2589 28.6025 18.4924 28.4822 19.9998 28.4822C21.5072 28.4822 24.7361 28.6071 26.098 28.0663C26.543 27.8907 26.9472 27.6255 27.2855 27.2871C27.6238 26.9487 27.889 26.5445 28.0646 26.0993C28.6045 24.741 28.4804 21.5036 28.4804 19.9978C28.4804 18.492 28.6045 15.2592 28.0646 13.8963L28.062 13.8957ZM19.9972 25.3018C18.9484 25.3018 17.9231 24.9907 17.0511 24.4079C16.1791 23.8251 15.4994 22.9967 15.098 22.0276C14.6967 21.0584 14.5917 19.992 14.7963 18.9631C15.0009 17.9342 15.5059 16.9891 16.2475 16.2474C16.9891 15.5056 17.934 15.0004 18.9627 14.7958C19.9913 14.5911 21.0575 14.6962 22.0265 15.0976C22.9954 15.4991 23.8236 16.1789 24.4063 17.0511C24.989 17.9233 25.3 18.9488 25.3 19.9978C25.3008 20.6946 25.1643 21.3847 24.8981 22.0286C24.6319 22.6725 24.2413 23.2575 23.7487 23.7502C23.2562 24.2429 22.6712 24.6335 22.0275 24.8998C21.3837 25.166 20.6938 25.3027 19.9972 25.3018ZM25.5186 15.7094C25.2737 15.7095 25.0344 15.637 24.8307 15.5011C24.6271 15.3651 24.4684 15.1718 24.3746 14.9456C24.2808 14.7194 24.2562 14.4704 24.3039 14.2302C24.3516 13.99 24.4694 13.7694 24.6425 13.5962C24.8155 13.423 25.0361 13.305 25.2762 13.2572C25.5163 13.2094 25.7652 13.2338 25.9914 13.3275C26.2176 13.4212 26.411 13.5799 26.547 13.7835C26.6831 13.9871 26.7557 14.2265 26.7557 14.4714C26.7564 14.634 26.7249 14.7951 26.6632 14.9456C26.6015 15.096 26.5107 15.2328 26.396 15.3481C26.2813 15.4633 26.1449 15.5548 25.9948 15.6173C25.8447 15.6797 25.6837 15.7119 25.5212 15.712L25.5186 15.7094ZM30.2717 24.2669C30.1883 25.9247 29.81 27.3936 28.6 28.6006C27.3901 29.8076 25.9227 30.1937 24.2672 30.2726C22.5593 30.369 17.4389 30.369 15.731 30.2726C14.0736 30.1892 12.6101 29.8102 11.3982 28.6006C10.1864 27.391 9.80546 25.9215 9.72656 24.2669C9.63021 22.558 9.63021 17.4358 9.72656 15.7288C9.80999 14.071 10.1838 12.602 11.3982 11.3951C12.6127 10.1881 14.08 9.80647 15.731 9.72756C17.4389 9.63118 22.5593 9.63118 24.2672 9.72756C25.9247 9.811 27.3927 10.19 28.6 11.3996C29.8074 12.6092 30.1928 14.0787 30.2717 15.7366C30.368 17.439 30.368 22.5567 30.2717 24.2669Z" fill="#242424"/>
</svg>
