<svg width="40" height="40" viewBox="0 0 40 40" fill="none" xmlns="http://www.w3.org/2000/svg">
<g clip-path="url(#clip0_0_43)">
<path d="M19.973 37.3346C10.4001 37.3346 2.65519 29.5625 2.66603 19.9661C2.67551 10.432 10.4489 2.67068 19.9973 2.66797C22.2733 2.66912 24.5268 3.11865 26.6291 3.99086C28.7313 4.86308 30.6413 6.14093 32.2498 7.75142C33.8584 9.36191 35.134 11.2735 36.0039 13.3771C36.8739 15.4807 37.321 17.735 37.3198 20.0115C37.3187 22.2879 36.8692 24.5418 35.9972 26.6445C35.1252 28.7472 33.8476 30.6575 32.2374 32.2664C30.6272 33.8752 28.716 35.1511 26.6128 36.0212C24.5096 36.8913 22.2557 37.3385 19.9797 37.3373L19.973 37.3346ZM10.4218 25.9587C12.8428 25.9587 15.2299 26.0359 17.6075 25.929C19.0021 25.8653 19.9432 24.7724 20.2234 23.3098C20.5971 21.3556 20.0556 20.1584 18.5174 19.5422C19.3786 19.0547 19.69 18.7093 19.8592 18.0525C20.4374 15.8112 19.1064 14.0533 16.8019 14.033C14.8629 14.0168 12.924 14.0236 10.9796 14.0236C10.7887 14.0236 10.5965 14.0533 10.4164 14.0682L10.4218 25.9587ZM29.5404 21.8147C29.7543 19.8469 28.9649 18.1432 27.5798 17.4553C24.7716 16.0631 21.6763 17.5325 21.0074 20.5701C20.5741 22.5392 21.3134 24.6072 22.8597 25.4062C24.7093 26.3623 26.5683 26.2283 28.3069 25.092C29.2154 24.4989 29.5783 23.5698 29.5946 22.4607H27.2264C26.9244 23.7892 26.1784 24.3878 25.1263 24.1779C24.1393 23.9815 23.5015 22.9374 23.7222 21.8093L29.5404 21.8147ZM23.0073 16.3976H26.9041C27.921 16.3976 28.0022 16.2811 27.7043 15.2735H23.0127L23.0073 16.3976Z" fill="white"/>
<path d="M12.832 24.2071V20.6724C14.1671 20.6724 15.4696 20.6061 16.7587 20.6941C17.6889 20.7577 18.2386 21.569 18.1885 22.5183C18.1329 23.5462 17.5453 24.1746 16.5352 24.2003C15.3247 24.2247 14.1116 24.2071 12.832 24.2071Z" fill="white"/>
<path d="M12.8223 18.7885V15.8091C13.9556 15.8091 15.078 15.763 16.1937 15.8267C16.8802 15.8646 17.2472 16.5363 17.1984 17.4234C17.1497 18.286 16.753 18.7641 16.0083 18.7776C14.9779 18.8101 13.942 18.7885 12.8223 18.7885Z" fill="white"/>
<path d="M23.6621 20.5594C23.6933 19.4421 24.3499 18.7988 25.4006 18.7988C26.4513 18.7988 27.0878 19.4245 27.15 20.5594H23.6621Z" fill="white"/>
</g>
<defs>
<clipPath id="clip0_0_43">
<rect width="34.6667" height="34.6667" fill="white" transform="translate(2.66602 2.66797)"/>
</clipPath>
</defs>
</svg>
