<svg width="40" height="40" viewBox="0 0 40 40" fill="none" xmlns="http://www.w3.org/2000/svg">
<g clip-path="url(#clip0_0_31)">
<path d="M19.9843 2.66797C22.2602 2.66797 24.5138 3.11631 26.6165 3.98739C28.7191 4.85847 30.6296 6.13524 32.2389 7.74479C33.8482 9.35434 35.1248 11.2652 35.9957 13.3681C36.8667 15.4711 37.3149 17.7251 37.3149 20.0013C37.3149 22.2776 36.8667 24.5315 35.9957 26.6345C35.1248 28.7375 33.8482 30.6483 32.2389 32.2578C30.6296 33.8674 28.7191 35.1441 26.6165 36.0152C24.5138 36.8863 22.2602 37.3346 19.9843 37.3346C10.4148 37.3346 2.6591 29.5466 2.66993 19.9648C2.6767 10.4249 10.4392 2.67203 19.9843 2.66797ZM18.5861 22.281C18.754 22.5139 18.9001 22.7088 19.0368 22.9091C20.366 24.8423 21.7669 26.7308 22.9919 28.7302C23.6876 29.866 24.4726 30.3317 25.8059 30.1991C27.1391 30.0664 28.4845 30.1693 29.9558 30.1693L21.8982 18.4377C24.3346 15.5949 26.7709 12.7696 29.2316 9.90914C28.161 9.68984 27.3069 9.77377 26.756 10.7376C26.6145 10.9418 26.4541 11.1322 26.2769 11.3062L21.1199 17.2979C20.9467 17.0515 20.8032 16.8539 20.6651 16.6521C19.4889 14.9424 18.2179 13.2894 17.1717 11.5079C16.3947 10.1826 15.4757 9.62485 13.9367 9.8049C12.701 9.95111 11.4354 9.83468 10.0467 9.83468L17.8119 21.1452L10.132 30.0799C11.2743 30.3913 12.0025 30.0393 12.7037 29.1756C14.5918 26.8364 16.5869 24.5986 18.5861 22.281Z" fill="white"/>
</g>
<defs>
<clipPath id="clip0_0_31">
<rect width="34.6667" height="34.6667" fill="white" transform="translate(2.66602 2.66797)"/>
</clipPath>
</defs>
</svg>
