<svg width="491" height="433" viewBox="0 0 491 433" fill="none" xmlns="http://www.w3.org/2000/svg">
<path d="M321.347 72.2953C332.404 54.7614 327.331 31.4706 310.015 20.2737C292.699 9.07685 269.698 14.214 258.641 31.7478L120.714 250.455C109.657 267.989 114.73 291.28 132.046 302.477C149.362 313.674 172.363 308.537 183.42 291.003L321.347 72.2953Z" fill="#00DAFF"/>
<path d="M470.762 143.015C481.94 125.822 476.813 102.709 459.311 91.3904C441.809 80.0719 418.56 84.8341 407.382 102.027L267.958 316.482C256.78 333.675 261.907 356.788 279.409 368.106C296.91 379.425 320.16 374.663 331.338 357.47L470.762 143.015Z" fill="#00DAFF"/>
<path d="M20.021 259.048C8.96335 276.582 14.0365 299.873 31.3522 311.07C48.6679 322.267 71.6691 317.13 82.7268 299.596L220.654 80.8891C231.712 63.3553 226.639 40.0644 209.323 28.8674C192.007 17.6705 169.006 22.8075 157.948 40.3413L20.021 259.048Z" fill="#FB0804"/>
<path d="M345.108 187.415C356.285 170.222 351.159 147.109 333.657 135.79C316.155 124.472 292.905 129.234 281.728 146.427L142.303 360.882C131.126 378.075 136.252 401.188 153.754 412.506C171.256 423.825 194.506 419.062 205.683 401.869L345.108 187.415Z" fill="#FB0804"/>
</svg>
