<svg width="153" height="135" viewBox="0 0 153 135" fill="none" xmlns="http://www.w3.org/2000/svg">
<path d="M52.8652 22.5401C49.4195 17.0734 51.0004 9.81184 56.3961 6.3209C61.7919 2.82996 68.9593 4.43162 72.4049 9.89829L115.384 78.0865C118.83 83.5532 117.249 90.8148 111.853 94.3057C106.457 97.7966 99.2899 96.195 95.8442 90.7283L52.8652 22.5401Z" fill="#00DAFF"/>
<path d="M6.30695 44.5889C2.82388 39.2286 4.42142 32.0224 9.87515 28.4936C15.3289 24.9647 22.5736 26.4495 26.0567 31.8098L69.5025 98.6722C72.9856 104.033 71.3881 111.239 65.9343 114.768C60.4806 118.296 53.2359 116.812 49.7528 111.451L6.30695 44.5889Z" fill="#00DAFF"/>
<path d="M146.762 80.7655C150.207 86.2322 148.627 93.4937 143.231 96.9847C137.835 100.476 130.668 98.8741 127.222 93.4074L84.2426 25.2194C80.7969 19.7527 82.3777 12.4912 87.7735 9.00019C93.1692 5.50922 100.337 7.11084 103.782 12.5775L146.762 80.7655Z" fill="#FB0804"/>
<path d="M45.4612 58.4317C41.9782 53.0713 43.5757 45.8652 49.0294 42.3363C54.4832 38.8075 61.7279 40.2922 65.211 45.6526L108.657 112.515C112.14 117.875 110.542 125.082 105.089 128.61C99.6349 132.139 92.3902 130.654 88.9071 125.294L45.4612 58.4317Z" fill="#FB0804"/>
</svg>
