<svg width="48" height="48" viewBox="0 0 48 48" fill="none" xmlns="http://www.w3.org/2000/svg">
<path d="M15 36C19.1355 36 22.5 32.6355 22.5 28.5C22.5 24.3645 19.1355 21 15 21C13.9447 21 12.9405 21.222 12.0285 21.6165C13.3005 18.7792 15.2685 16.3785 17.5597 15.132C18.2872 14.736 18.5565 13.8255 18.1605 13.0973C17.889 12.5978 17.373 12.3142 16.8413 12.3142C16.5998 12.3142 16.3537 12.3727 16.1257 12.4965C11.1277 15.216 7.5 21.9465 7.5 28.5C7.5 32.6355 10.8645 36 15 36Z" fill="#39B2DF"/>
<path d="M33.75 36C37.8855 36 41.25 32.6355 41.25 28.5C41.25 24.3645 37.8855 21 33.75 21C32.6947 21 31.6905 21.2212 30.7785 21.6165C32.0513 18.7792 34.0192 16.3785 36.3098 15.132C37.0373 14.736 37.3065 13.8255 36.9105 13.0973C36.6382 12.5978 36.1237 12.3142 35.5912 12.3142C35.349 12.3142 35.1037 12.3727 34.8757 12.4965C29.8777 15.216 26.25 21.9465 26.25 28.5C26.25 32.6355 29.6145 36 33.75 36Z" fill="#39B2DF"/>
</svg>
