<svg width="646" height="628" viewBox="0 0 646 628" fill="none" xmlns="http://www.w3.org/2000/svg">
<path d="M335.096 151.248C335.01 130.514 351.659 113.447 372.282 113.127C392.905 112.807 409.693 129.357 409.779 150.091L410.85 408.717C410.936 429.451 394.287 446.518 373.664 446.838C353.041 447.157 336.253 430.608 336.167 409.874L335.096 151.248Z" fill="#F5F5F5"/>
<path d="M170.873 132.04C170.505 111.531 187.105 94.6432 207.95 94.319C228.795 93.9949 245.992 110.358 246.361 130.866L250.956 386.679C251.325 407.188 234.725 424.076 213.88 424.4C193.035 424.724 175.838 408.361 175.469 387.853L170.873 132.04Z" fill="#F5F5F5"/>
<path d="M491.708 469.378C491.794 490.112 475.146 507.179 454.523 507.499C433.9 507.819 417.112 491.27 417.026 470.535L415.954 211.91C415.868 191.175 432.516 174.108 453.139 173.788C473.762 173.468 490.55 190.018 490.636 210.752L491.708 469.378Z" fill="#FAFAFA"/>
<path d="M253.924 236.305C253.556 215.796 270.156 198.908 291.001 198.584C311.846 198.259 329.043 214.622 329.412 235.131L334.008 490.944C334.376 511.452 317.776 528.34 296.931 528.665C276.086 528.989 258.889 512.626 258.52 492.117L253.924 236.305Z" fill="#FAFAFA"/>
</svg>
