<svg width="646" height="628" viewBox="0 0 646 628" fill="none" xmlns="http://www.w3.org/2000/svg">
<path d="M310.904 151.248C310.99 130.514 294.341 113.447 273.718 113.127C253.095 112.807 236.307 129.357 236.221 150.091L235.15 408.717C235.064 429.451 251.713 446.518 272.336 446.838C292.959 447.157 309.747 430.608 309.833 409.874L310.904 151.248Z" fill="#F5F5F5"/>
<path d="M475.127 132.04C475.495 111.531 458.895 94.6431 438.05 94.319C417.205 93.9949 400.008 110.358 399.639 130.866L395.044 386.679C394.675 407.188 411.275 424.076 432.12 424.4C452.965 424.724 470.162 408.361 470.531 387.853L475.127 132.04Z" fill="#F5F5F5"/>
<path d="M154.292 469.378C154.206 490.112 170.854 507.179 191.477 507.499C212.1 507.819 228.888 491.27 228.974 470.535L230.046 211.909C230.132 191.175 213.484 174.108 192.861 173.788C172.238 173.468 155.45 190.018 155.364 210.752L154.292 469.378Z" fill="#FAFAFA"/>
<path d="M392.076 236.305C392.444 215.796 375.844 198.908 354.999 198.584C334.154 198.259 316.957 214.622 316.588 235.131L311.992 490.944C311.624 511.452 328.224 528.34 349.069 528.665C369.914 528.989 387.111 512.626 387.48 492.117L392.076 236.305Z" fill="#FAFAFA"/>
</svg>
